<?xml version="1.0" standalone="no"?><svg xmlns="http://www.w3.org/2000/svg" viewBox="0 0 1440 320"><path fill="#273036" fill-opacity="1" d="M0,0L40,37.3C80,75,160,149,240,202.7C320,256,400,288,480,304C560,320,640,320,720,288C800,256,880,192,960,192C1040,192,1120,256,1200,261.3C1280,267,1360,213,1400,186.7L1440,160L1440,320L1400,320C1360,320,1280,320,1200,320C1120,320,1040,320,960,320C880,320,800,320,720,320C640,320,560,320,480,320C400,320,320,320,240,320C160,320,80,320,40,320L0,320Z"></path></svg>